<svg width="304" height="107" viewBox="0 0 304 107" fill="none" xmlns="http://www.w3.org/2000/svg">
<path d="M68.5312 35.875L62.4609 70H55.5469L51.5859 49.8672L47.625 70H40.7109L34.6172 35.875H41.4609L44.6953 57.25L48.7031 35.875H54.4688L58.5 57.25L61.7109 35.875H68.5312ZM72.2578 70V35.875H91.8047V41.6172H79.1719V49.6797H89.8828V55.2344H79.1719V64.2812H91.8516V70H72.2578ZM114.82 64.2812V70H95.8359V35.875H102.75V64.2812H114.82ZM137.789 64.2812V70H118.805V35.875H125.719V64.2812H137.789ZM169.078 58.6094H175.969C175.812 62.4844 174.719 65.4297 172.688 67.4453C170.656 69.4609 167.812 70.4688 164.156 70.4688C160.406 70.4688 157.492 69.2422 155.414 66.7891C153.336 64.3359 152.273 60.7969 152.227 56.1719V50.0547C152.227 45.2891 153.297 41.6562 155.438 39.1562C157.594 36.6406 160.531 35.3828 164.25 35.3828C167.969 35.3828 170.797 36.4297 172.734 38.5234C174.672 40.6016 175.766 43.5781 176.016 47.4531H169.125C169.047 45.0156 168.664 43.3516 167.977 42.4609C167.289 41.5547 166.047 41.1016 164.25 41.1016C162.484 41.1016 161.195 41.7344 160.383 43C159.57 44.2656 159.148 46.4766 159.117 49.6328V55.8438C159.117 59.0625 159.469 61.3516 160.172 62.7109C160.875 64.0703 162.203 64.75 164.156 64.75C165.859 64.75 167.086 64.3438 167.836 63.5312C168.586 62.7188 169 61.0781 169.078 58.6094ZM204.234 55.9844C204.234 60.7969 203.109 64.4141 200.859 66.8359C198.609 69.2578 195.648 70.4688 191.977 70.4688C188.32 70.4688 185.352 69.2578 183.07 66.8359C180.789 64.4141 179.648 60.7969 179.648 55.9844V50.3125C179.648 45.3906 180.781 41.6797 183.047 39.1797C185.312 36.6641 188.273 35.4062 191.93 35.4062C195.602 35.4062 198.57 36.6641 200.836 39.1797C203.102 41.6797 204.234 45.3906 204.234 50.3125V55.9844ZM197.344 50.2656C197.344 47.0156 196.883 44.6875 195.961 43.2812C195.039 41.875 193.695 41.1719 191.93 41.1719C190.18 41.1719 188.844 41.8672 187.922 43.2578C187.016 44.6328 186.555 46.9062 186.539 50.0781V55.9844C186.539 59.0781 187 61.3125 187.922 62.6875C188.859 64.0469 190.211 64.7266 191.977 64.7266C193.727 64.7266 195.055 64.0547 195.961 62.7109C196.867 61.3672 197.328 59.1797 197.344 56.1484V50.2656ZM224.625 60.5312L231.047 35.875H240.047V70H233.133V60.7656L233.766 46.6328L226.969 70H222.258L215.461 46.6328L216.094 60.7656V70H209.18V35.875H218.18L224.625 60.5312ZM245.602 70V35.875H265.148V41.6172H252.516V49.6797H263.227V55.2344H252.516V64.2812H265.195V70H245.602Z" fill="#E5E5E5"/>
<g filter="url(#filter0_i)">
<path d="M62.4766 57.3203L65.7109 35.875H72.5312L66.4609 70H59.5469L55.5625 49.8906L51.625 70H44.6875L38.5938 35.875H45.4609L48.6719 57.2969L52.6797 35.875H58.4688L62.4766 57.3203ZM93.8828 55.2344H83.1484V64.2812H95.8516V70H76.2578V35.875H95.8047V41.6172H83.1484V49.6797H93.8828V55.2344ZM106.727 64.2812H118.82V70H99.8359V35.875H106.727V64.2812ZM129.695 64.2812H141.789V70H122.805V35.875H129.695V64.2812ZM179.969 58.6328C179.797 62.5234 178.703 65.4688 176.688 67.4688C174.672 69.4688 171.828 70.4688 168.156 70.4688C164.297 70.4688 161.336 69.2031 159.273 66.6719C157.227 64.125 156.203 60.5 156.203 55.7969V50.0547C156.203 45.3672 157.266 41.7578 159.391 39.2266C161.516 36.6797 164.469 35.4062 168.25 35.4062C171.969 35.4062 174.789 36.4453 176.711 38.5234C178.648 40.6016 179.75 43.5859 180.016 47.4766H173.102C173.039 45.0703 172.664 43.4141 171.977 42.5078C171.305 41.5859 170.062 41.125 168.25 41.125C166.406 41.125 165.102 41.7734 164.336 43.0703C163.57 44.3516 163.164 46.4688 163.117 49.4219V55.8672C163.117 59.2578 163.492 61.5859 164.242 62.8516C165.008 64.1172 166.312 64.75 168.156 64.75C169.969 64.75 171.219 64.3125 171.906 63.4375C172.594 62.5469 172.984 60.9453 173.078 58.6328H179.969ZM208.234 56.0078C208.234 60.5859 207.148 64.1406 204.977 66.6719C202.82 69.2031 199.82 70.4688 195.977 70.4688C192.148 70.4688 189.141 69.2188 186.953 66.7188C184.766 64.2031 183.656 60.6875 183.625 56.1719V50.3359C183.625 45.6484 184.711 41.9922 186.883 39.3672C189.055 36.7266 192.07 35.4062 195.93 35.4062C199.727 35.4062 202.719 36.7031 204.906 39.2969C207.094 41.875 208.203 45.5 208.234 50.1719V56.0078ZM201.32 50.2891C201.32 47.2109 200.883 44.9219 200.008 43.4219C199.133 41.9219 197.773 41.1719 195.93 41.1719C194.102 41.1719 192.75 41.8984 191.875 43.3516C191 44.7891 190.547 46.9844 190.516 49.9375V56.0078C190.516 58.9922 190.961 61.1953 191.852 62.6172C192.742 64.0234 194.117 64.7266 195.977 64.7266C197.773 64.7266 199.109 64.0391 199.984 62.6641C200.859 61.2734 201.305 59.125 201.32 56.2188V50.2891ZM222.18 35.875L228.625 60.5547L235.047 35.875H244.047V70H237.133V60.7656L237.766 46.5391L230.945 70H226.258L219.438 46.5391L220.07 60.7656V70H213.18V35.875H222.18ZM267.227 55.2344H256.492V64.2812H269.195V70H249.602V35.875H269.148V41.6172H256.492V49.6797H267.227V55.2344Z" fill="#456252"/>
</g>
<defs>
<filter id="filter0_i" x="4" y="0" width="300" height="111" filterUnits="userSpaceOnUse" color-interpolation-filters="sRGB">
<feFlood flood-opacity="0" result="BackgroundImageFix"/>
<feBlend mode="normal" in="SourceGraphic" in2="BackgroundImageFix" result="shape"/>
<feColorMatrix in="SourceAlpha" type="matrix" values="0 0 0 0 0 0 0 0 0 0 0 0 0 0 0 0 0 0 127 0" result="hardAlpha"/>
<feOffset dy="4"/>
<feGaussianBlur stdDeviation="2"/>
<feComposite in2="hardAlpha" operator="arithmetic" k2="-1" k3="1"/>
<feColorMatrix type="matrix" values="0 0 0 0 0 0 0 0 0 0 0 0 0 0 0 0 0 0 0.25 0"/>
<feBlend mode="normal" in2="shape" result="effect1_innerShadow"/>
</filter>
</defs>
</svg>
