<svg id="Capa_1" enable-background="new 0 0 512 512" height="512" viewBox="0 0 512 512" width="512" xmlns="http://www.w3.org/2000/svg"><g><path d="m0 310v187c0 8.284 6.716 15 15 15h482c8.284 0 15-6.716 15-15v-187zm452 127c0 8.284-6.716 15-15 15h-362c-8.284 0-15-6.716-15-15v-82c0-8.284 6.716-15 15-15h362c8.284 0 15 6.716 15 15z"/><path d="m90 370h332v52h-332z"/><path d="m275.205 137.12c.657-3.909.926-13.224-9.896-17.781v32.121c5.625-3.222 8.985-8.92 9.896-14.34z"/><path d="m245.31 67.905c-3.052 2.34-4.734 5.883-5.313 8.956-.799 4.239.213 8.177 2.578 10.031.833.653 1.751 1.295 2.735 1.926z"/><path d="m256 220c60.751 0 110-49.249 110-110s-49.249-110-110-110-110 49.249-110 110 49.249 110 110 110zm-37.839-69.131c3.024-4.621 9.222-5.916 13.843-2.894 5.401 3.533 8.787 5.068 13.306 5.703v-42.234c-6.388-2.927-11.162-5.744-15.079-8.817-8.298-6.508-12.087-17.801-9.888-29.472 2.396-12.718 11.249-22.836 23.102-26.407.628-.189 1.249-.362 1.865-.526v-6.222c0-5.522 4.477-10 10-10 5.522 0 10 4.478 10 10v5.127c9.708 1.681 16.572 6.46 19.895 10.276 3.628 4.164 3.192 10.481-.972 14.108-4.142 3.608-10.413 3.198-14.051-.905-.227-.231-1.817-1.761-4.872-2.887v32.312c1.775.659 3.549 1.298 5.29 1.914 17.578 6.214 27.355 22.486 24.329 40.491-2.353 13.995-13.003 28.188-29.619 32.403v7.161c0 5.522-4.478 10-10 10-5.523 0-10-4.478-10-10v-6.202c-8.074-.698-14.767-2.879-24.254-9.086-4.623-3.024-5.919-9.221-2.895-13.843z"/><path d="m471.23 170.257c-2.042-6.125-7.774-10.257-14.23-10.257h-70.238c-9.127 23.789-24.561 44.479-44.254 60h43.492c8.284 0 15 6.716 15 15s-6.716 15-15 15h-260c-8.284 0-15-6.716-15-15s6.716-15 15-15h43.492c-19.693-15.521-35.127-36.211-44.254-60h-70.238c-6.457 0-12.188 4.132-14.23 10.257l-36.581 109.743h503.623z"/></g></svg>